<svg width="40" height="40" viewBox="0 0 40 40" fill="none" xmlns="http://www.w3.org/2000/svg">
<rect width="40" height="40" fill="#F2F2F2"/>
<g clip-path="url(#clip0_0_312)">
<rect width="768" height="1024" transform="translate(-24 -24)" fill="white"/>
<rect x="-24" y="-24" width="768" height="88" fill="white"/>
<rect width="40" height="40" rx="20" fill="#FF3E79"/>
<path fill-rule="evenodd" clip-rule="evenodd" d="M11 13C11 12.4477 11.4477 12 12 12H28C28.5523 12 29 12.4477 29 13C29 13.5523 28.5523 14 28 14H12C11.4477 14 11 13.5523 11 13ZM11 20C11 19.4477 11.4477 19 12 19H20C20.5523 19 21 19.4477 21 20C21 20.5523 20.5523 21 20 21H12C11.4477 21 11 20.5523 11 20ZM12 26C11.4477 26 11 26.4477 11 27C11 27.5523 11.4477 28 12 28H24C24.5523 28 25 27.5523 25 27C25 26.4477 24.5523 26 24 26H12Z" fill="white"/>
<rect opacity="0.96048" x="-24" y="-24" width="769" height="1024" fill="white"/>
<g filter="url(#filter0_d_0_312)">
<rect width="320" height="1024" transform="matrix(-1 0 0 1 296 -24)" fill="white"/>
</g>
<rect width="40" height="40" rx="20" fill="#FF3E79"/>
<path fill-rule="evenodd" clip-rule="evenodd" d="M13.7935 12.2571C13.403 11.8666 12.7698 11.8666 12.3793 12.2571L12.2571 12.3793C11.8666 12.7698 11.8666 13.403 12.2571 13.7935L18.4636 20L12.2571 26.2065C11.8666 26.597 11.8666 27.2302 12.2571 27.6207L12.3793 27.7429C12.7698 28.1334 13.403 28.1334 13.7935 27.7429L20 21.5364L26.2065 27.7429C26.597 28.1334 27.2302 28.1334 27.6207 27.7429L27.7429 27.6207C28.1334 27.2302 28.1334 26.597 27.7429 26.2065L21.5364 20L27.7429 13.7935C28.1334 13.403 28.1334 12.7698 27.7429 12.3793L27.6207 12.2571C27.2302 11.8666 26.597 11.8666 26.2065 12.2571L20 18.4636L13.7935 12.2571Z" fill="white"/>
</g>
<defs>
<filter id="filter0_d_0_312" x="-60" y="-76" width="424" height="1128" filterUnits="userSpaceOnUse" color-interpolation-filters="sRGB">
<feFlood flood-opacity="0" result="BackgroundImageFix"/>
<feColorMatrix in="SourceAlpha" type="matrix" values="0 0 0 0 0 0 0 0 0 0 0 0 0 0 0 0 0 0 127 0" result="hardAlpha"/>
<feOffset dx="16"/>
<feGaussianBlur stdDeviation="26"/>
<feColorMatrix type="matrix" values="0 0 0 0 0.0568147 0 0 0 0 0.0934795 0 0 0 0 0.314651 0 0 0 0.2 0"/>
<feBlend mode="normal" in2="BackgroundImageFix" result="effect1_dropShadow_0_312"/>
<feBlend mode="normal" in="SourceGraphic" in2="effect1_dropShadow_0_312" result="shape"/>
</filter>
<clipPath id="clip0_0_312">
<rect width="768" height="1024" fill="white" transform="translate(-24 -24)"/>
</clipPath>
</defs>
</svg>
